<mxfile host="65bd71144e">
    <diagram id="1EOno5jFjsv4IJG9-jW1" name="Sayfa -1">
        <mxGraphModel dx="1470" dy="959" grid="0" gridSize="10" guides="1" tooltips="1" connect="1" arrows="1" fold="1" page="0" pageScale="1" pageWidth="827" pageHeight="1169" math="0" shadow="0">
            <root>
                <mxCell id="0"/>
                <mxCell id="1" parent="0"/>
                <mxCell id="5KoVIWTO6btiPn7vELP2-1" value="" style="rounded=0;whiteSpace=wrap;html=1;fontSize=16;fillColor=#647687;strokeColor=#314354;fontColor=#ffffff;" parent="1" vertex="1">
                    <mxGeometry x="-495" y="-268" width="641" height="400" as="geometry"/>
                </mxCell>
                <mxCell id="5KoVIWTO6btiPn7vELP2-3" value="DUT" style="rounded=0;whiteSpace=wrap;html=1;fontSize=16;fontFamily=Roboto;fontSource=https%3A%2F%2Ffonts.googleapis.com%2Fcss%3Ffamily%3DRoboto;fontStyle=0;fillColor=#4416A0;strokeColor=none;fontColor=#ffffff;" parent="1" vertex="1">
                    <mxGeometry x="9" y="-119" width="93" height="141" as="geometry"/>
                </mxCell>
                <mxCell id="5KoVIWTO6btiPn7vELP2-6" value="top_tb" style="text;html=1;strokeColor=none;fillColor=none;align=center;verticalAlign=middle;whiteSpace=wrap;rounded=0;fontSize=16;fontFamily=Roboto;fontSource=https%3A%2F%2Ffonts.googleapis.com%2Fcss%3Ffamily%3DRoboto;" parent="1" vertex="1">
                    <mxGeometry x="-535" y="-271" width="177" height="30" as="geometry"/>
                </mxCell>
                <mxCell id="5KoVIWTO6btiPn7vELP2-9" value="" style="rounded=0;whiteSpace=wrap;html=1;fontSize=16;fillColor=#8C95E2;strokeColor=#56517e;" parent="1" vertex="1">
                    <mxGeometry x="-482" y="-245.5" width="457" height="359" as="geometry"/>
                </mxCell>
                <mxCell id="5KoVIWTO6btiPn7vELP2-10" value="" style="rounded=0;whiteSpace=wrap;html=1;fontSize=16;fillColor=#637DFF;strokeColor=#3700CC;fontColor=#ffffff;" parent="1" vertex="1">
                    <mxGeometry x="-437" y="-198" width="371" height="258" as="geometry"/>
                </mxCell>
                <mxCell id="5KoVIWTO6btiPn7vELP2-11" value="" style="rounded=0;whiteSpace=wrap;html=1;fontSize=16;fillColor=#6a00ff;strokeColor=#3700CC;fontColor=#ffffff;" parent="1" vertex="1">
                    <mxGeometry x="-304" y="-107" width="220" height="122" as="geometry"/>
                </mxCell>
                <mxCell id="14" style="edgeStyle=none;html=1;exitX=1;exitY=0.5;exitDx=0;exitDy=0;entryX=0.53;entryY=0;entryDx=0;entryDy=0;entryPerimeter=0;" edge="1" parent="1" source="5KoVIWTO6btiPn7vELP2-12" target="7">
                    <mxGeometry relative="1" as="geometry">
                        <Array as="points">
                            <mxPoint x="-311" y="-226"/>
                            <mxPoint x="-167" y="-226"/>
                        </Array>
                    </mxGeometry>
                </mxCell>
                <mxCell id="5KoVIWTO6btiPn7vELP2-12" value="Test" style="text;html=1;strokeColor=none;fillColor=none;align=center;verticalAlign=middle;whiteSpace=wrap;rounded=0;fontSize=16;fontFamily=Roboto;fontSource=https%3A%2F%2Ffonts.googleapis.com%2Fcss%3Ffamily%3DRoboto;" parent="1" vertex="1">
                    <mxGeometry x="-468" y="-241" width="60" height="30" as="geometry"/>
                </mxCell>
                <mxCell id="5KoVIWTO6btiPn7vELP2-13" value="Environment" style="text;html=1;strokeColor=none;fillColor=none;align=center;verticalAlign=middle;whiteSpace=wrap;rounded=0;fontSize=16;fontFamily=Roboto;fontSource=https%3A%2F%2Ffonts.googleapis.com%2Fcss%3Ffamily%3DRoboto;" parent="1" vertex="1">
                    <mxGeometry x="-405" y="-191" width="60" height="30" as="geometry"/>
                </mxCell>
                <mxCell id="5KoVIWTO6btiPn7vELP2-14" value="Agent" style="text;html=1;strokeColor=none;fillColor=none;align=center;verticalAlign=middle;whiteSpace=wrap;rounded=0;fontSize=14;fontFamily=Roboto;fontSource=https%3A%2F%2Ffonts.googleapis.com%2Fcss%3Ffamily%3DRoboto;fontStyle=0" parent="1" vertex="1">
                    <mxGeometry x="-297" y="-104" width="60" height="30" as="geometry"/>
                </mxCell>
                <mxCell id="12" style="edgeStyle=none;html=1;exitX=0.5;exitY=0;exitDx=0;exitDy=0;entryX=0.685;entryY=1.034;entryDx=0;entryDy=0;entryPerimeter=0;" edge="1" parent="1" source="5KoVIWTO6btiPn7vELP2-20" target="7">
                    <mxGeometry relative="1" as="geometry">
                        <mxPoint x="-208.6606924874443" y="-138.27675955636164" as="targetPoint"/>
                    </mxGeometry>
                </mxCell>
                <mxCell id="5KoVIWTO6btiPn7vELP2-20" value="Mon" style="rounded=0;whiteSpace=wrap;html=1;fontSize=12;fontFamily=Roboto;fontSource=https%3A%2F%2Ffonts.googleapis.com%2Fcss%3Ffamily%3DRoboto;fontStyle=1;fillColor=#647687;fontColor=#ffffff;strokeColor=#314354;" parent="1" vertex="1">
                    <mxGeometry x="-179" y="-87" width="75" height="38" as="geometry"/>
                </mxCell>
                <mxCell id="5KoVIWTO6btiPn7vELP2-25" style="edgeStyle=none;curved=1;rounded=0;orthogonalLoop=1;jettySize=auto;html=1;exitX=0;exitY=0.5;exitDx=0;exitDy=0;fontSize=12;startSize=8;endSize=8;" parent="1" source="5KoVIWTO6btiPn7vELP2-22" target="5KoVIWTO6btiPn7vELP2-24" edge="1">
                    <mxGeometry relative="1" as="geometry"/>
                </mxCell>
                <mxCell id="5KoVIWTO6btiPn7vELP2-22" value="Seqr" style="rounded=0;whiteSpace=wrap;html=1;fontSize=12;fontFamily=Roboto;fontSource=https%3A%2F%2Ffonts.googleapis.com%2Fcss%3Ffamily%3DRoboto;fontStyle=1;fillColor=#647687;fontColor=#ffffff;strokeColor=#314354;" parent="1" vertex="1">
                    <mxGeometry x="-295" y="-34.5" width="78" height="35" as="geometry"/>
                </mxCell>
                <mxCell id="5KoVIWTO6btiPn7vELP2-23" value="" style="group;fontFamily=Roboto;fontSource=https%3A%2F%2Ffonts.googleapis.com%2Fcss%3Ffamily%3DRoboto;fillColor=#e51400;strokeColor=#B20000;fontColor=#ffffff;" parent="1" vertex="1" connectable="0">
                    <mxGeometry x="-426" y="-84" width="97" height="47" as="geometry"/>
                </mxCell>
                <mxCell id="5KoVIWTO6btiPn7vELP2-15" value="" style="rounded=0;whiteSpace=wrap;html=1;fontSize=16;fillColor=#414D87;strokeColor=#314354;fontColor=#ffffff;" parent="5KoVIWTO6btiPn7vELP2-23" vertex="1">
                    <mxGeometry width="97.00000000000001" height="47" as="geometry"/>
                </mxCell>
                <mxCell id="5KoVIWTO6btiPn7vELP2-16" value="Config" style="text;html=1;strokeColor=none;fillColor=none;align=left;verticalAlign=middle;whiteSpace=wrap;rounded=0;fontSize=16;fontFamily=Roboto;fontSource=https%3A%2F%2Ffonts.googleapis.com%2Fcss%3Ffamily%3DRoboto;fontStyle=0" parent="5KoVIWTO6btiPn7vELP2-23" vertex="1">
                    <mxGeometry x="-0.000759493670884126" y="6.999308755760367" width="36.835443037974684" height="6.497695852534564" as="geometry"/>
                </mxCell>
                <mxCell id="5KoVIWTO6btiPn7vELP2-24" value="Drv" style="rounded=0;whiteSpace=wrap;html=1;fontSize=12;fontFamily=Roboto;fontSource=https%3A%2F%2Ffonts.googleapis.com%2Fcss%3Ffamily%3DRoboto;fontStyle=1;fillColor=#647687;fontColor=#ffffff;strokeColor=#314354;" parent="1" vertex="1">
                    <mxGeometry x="-179" y="-34.5" width="80" height="34.5" as="geometry"/>
                </mxCell>
                <mxCell id="5KoVIWTO6btiPn7vELP2-33" value="Virtual interface" style="text;html=1;strokeColor=none;fillColor=none;align=center;verticalAlign=middle;whiteSpace=wrap;rounded=0;fontSize=10;fontFamily=Roboto;fontSource=https%3A%2F%2Ffonts.googleapis.com%2Fcss%3Ffamily%3DRoboto;" parent="1" vertex="1">
                    <mxGeometry x="-87" y="-104" width="89" height="30" as="geometry"/>
                </mxCell>
                <mxCell id="5KoVIWTO6btiPn7vELP2-35" style="edgeStyle=none;curved=1;rounded=0;orthogonalLoop=1;jettySize=auto;html=1;fontSize=12;shape=flexArrow;endSize=4;startSize=4;width=10;fillColor=#647687;strokeColor=#314354;startArrow=none;endArrow=block;endFill=0;startFill=0;exitX=0.001;exitY=0.365;exitDx=0;exitDy=0;exitPerimeter=0;entryX=1;entryY=0.5;entryDx=0;entryDy=0;" parent="1" edge="1" target="5KoVIWTO6btiPn7vELP2-20" source="5KoVIWTO6btiPn7vELP2-3">
                    <mxGeometry relative="1" as="geometry">
                        <mxPoint x="-3" y="-66.24" as="sourcePoint"/>
                        <mxPoint x="-115" y="-66.24" as="targetPoint"/>
                    </mxGeometry>
                </mxCell>
                <mxCell id="JF0MYyEvKVekCrRpM-_x-9" value="sequences" style="rounded=1;whiteSpace=wrap;html=1;fillColor=#4416A0;strokeColor=none;fontColor=#000000;" parent="1" vertex="1">
                    <mxGeometry x="-467" y="72" width="91" height="32" as="geometry"/>
                </mxCell>
                <mxCell id="3" style="edgeStyle=none;curved=1;rounded=0;orthogonalLoop=1;jettySize=auto;html=1;fontSize=12;shape=flexArrow;endSize=4;startSize=4;width=10;fillColor=#647687;strokeColor=#314354;startArrow=none;endArrow=block;endFill=0;startFill=0;exitX=1;exitY=0.5;exitDx=0;exitDy=0;entryX=0.022;entryY=0.722;entryDx=0;entryDy=0;entryPerimeter=0;" edge="1" parent="1" source="5KoVIWTO6btiPn7vELP2-24" target="5KoVIWTO6btiPn7vELP2-3">
                    <mxGeometry relative="1" as="geometry">
                        <mxPoint x="-33.90700000000015" y="78.46500000000003" as="sourcePoint"/>
                        <mxPoint x="-193" y="78" as="targetPoint"/>
                    </mxGeometry>
                </mxCell>
                <mxCell id="4" value="Virtual interface" style="text;html=1;strokeColor=none;fillColor=none;align=center;verticalAlign=middle;whiteSpace=wrap;rounded=0;fontSize=10;fontFamily=Roboto;fontSource=https%3A%2F%2Ffonts.googleapis.com%2Fcss%3Ffamily%3DRoboto;" vertex="1" parent="1">
                    <mxGeometry x="-89" y="-53" width="89" height="30" as="geometry"/>
                </mxCell>
                <mxCell id="5" style="edgeStyle=none;html=1;exitX=1;exitY=0.5;exitDx=0;exitDy=0;entryX=0.007;entryY=0.379;entryDx=0;entryDy=0;entryPerimeter=0;" edge="1" parent="1" source="5KoVIWTO6btiPn7vELP2-15" target="5KoVIWTO6btiPn7vELP2-11">
                    <mxGeometry relative="1" as="geometry"/>
                </mxCell>
                <mxCell id="6" value="" style="group;fontFamily=Roboto;fontSource=https%3A%2F%2Ffonts.googleapis.com%2Fcss%3Ffamily%3DRoboto;fillColor=#0050ef;strokeColor=#001DBC;fontColor=#ffffff;" vertex="1" connectable="0" parent="1">
                    <mxGeometry x="-252" y="-183" width="161" height="47" as="geometry"/>
                </mxCell>
                <mxCell id="7" value="" style="rounded=0;whiteSpace=wrap;html=1;fontSize=16;fillColor=#6a00ff;strokeColor=#3700CC;fontColor=#ffffff;" vertex="1" parent="6">
                    <mxGeometry width="161.00000000000003" height="47" as="geometry"/>
                </mxCell>
                <mxCell id="8" value="Scoreboard" style="text;html=1;strokeColor=none;fillColor=none;align=left;verticalAlign=middle;whiteSpace=wrap;rounded=0;fontSize=16;fontFamily=Roboto;fontSource=https%3A%2F%2Ffonts.googleapis.com%2Fcss%3Ffamily%3DRoboto;" vertex="1" parent="6">
                    <mxGeometry x="39.99812084040194" y="16.999308755760367" width="61.139240506329116" height="6.497695852534564" as="geometry"/>
                </mxCell>
            </root>
        </mxGraphModel>
    </diagram>
</mxfile>